<svg width="169" height="61" viewBox="0 0 169 61" fill="none" xmlns="http://www.w3.org/2000/svg">
<path d="M3.80996 37.5733C4.42991 37.3905 4.88122 36.9967 5.1615 36.3943C5.44179 35.7918 5.65794 35.1496 5.81471 34.4651C5.9691 33.7806 6.1615 33.1852 6.38953 32.6742C7.32064 29.4909 8.11874 26.8984 8.78144 24.8965C9.61042 22.4071 10.5724 20.0091 11.6698 17.7025L11.7624 19.1113C11.8028 20.0912 11.8764 21.2749 11.981 22.6626C12.0855 24.0503 12.2351 25.499 12.4323 27.0109C12.6294 28.5228 12.9026 29.941 13.2541 31.2678C13.6057 32.5945 14.0522 33.6751 14.589 34.5143C15.1258 35.3535 15.7909 35.7707 16.5771 35.7707C17.095 35.7707 17.665 35.5457 18.285 35.098C18.8242 33.8744 19.2992 32.5664 19.7125 31.1787C20.1068 29.8918 20.5462 28.6471 21.0332 27.4446C21.5201 26.2397 22.1448 25.1989 22.912 24.3222L22.9429 26.7718C22.9429 27.7118 23.0047 28.64 23.1282 29.5589C23.2517 30.4778 23.5581 31.2584 24.045 31.9007C24.532 32.5429 25.2826 32.9461 26.2968 33.1102C26.5866 33.0704 26.7315 32.9578 26.7315 32.7727C26.7315 32.6906 26.6911 32.5992 26.608 32.4961C26.0688 31.3732 25.8004 30.0254 25.8004 28.4549C25.8004 27.2711 25.893 26.0662 26.0807 24.8426C26.1852 24.0878 26.2564 23.3424 26.2992 22.6087C26.4845 21.8328 26.5795 21.1085 26.5795 20.4357C26.5795 19.7419 26.4132 19.1395 26.083 18.6284C25.7529 18.1174 25.1211 17.7611 24.1899 17.5572H24.0973C23.684 17.5572 23.3681 17.726 23.1496 18.0635C22.931 18.4011 22.741 18.7785 22.5747 19.1957C22.4085 19.6153 22.2232 19.9552 22.0165 20.2224C20.4631 22.958 19.1805 25.806 18.1662 28.7643C17.6484 30.1731 17.0997 31.5608 16.5201 32.9274C16.1068 31.3967 15.836 29.8449 15.7125 28.2744C15.589 26.7038 15.5154 25.1309 15.494 23.5604C15.4726 21.0499 15.266 18.5792 14.8741 16.1508C14.6674 15.4968 14.2731 14.9459 13.6935 14.4982C13.114 14.0504 12.5249 13.8254 11.9239 13.8254C11.0142 13.8254 10.4323 14.3669 10.1852 15.4475C8.52966 19.3246 7.04986 23.2557 5.74345 27.2359C5.04036 29.3386 4.30402 31.4295 3.53918 33.5134C3.47742 32.4937 3.44654 31.4717 3.44654 30.452C3.44654 27.5336 3.68407 24.6035 4.16151 21.664C4.51305 19.4184 5.1045 16.2351 5.9311 12.1119C6.1995 11.5001 6.33489 10.9281 6.33489 10.3984C6.33489 9.1935 5.57005 8.32619 4.03799 7.79643L3.78859 7.76596C2.46317 7.76596 1.4703 9.68576 0.807598 13.523C0.268408 16.7063 0 20.5248 0 24.9739C0 26.9734 0.0570072 28.7596 0.171021 30.3325C0.285035 31.903 0.425177 32.9954 0.589071 33.6095C0.774344 34.5284 1.10688 35.391 1.58194 36.1974C2.057 37.0037 2.79571 37.4515 3.80996 37.5733ZM32.1852 11.915C32.3704 11.915 32.5771 11.8939 32.8051 11.854C32.8669 11.261 33.0331 10.6492 33.2992 10.0163C33.6293 9.15834 33.7932 8.50434 33.7932 8.05662C33.7932 7.62766 33.6388 7.21978 33.3301 6.83067C32.4441 5.95163 31.7101 5.51329 31.1329 5.51329C30.8241 5.51329 30.5771 5.68675 30.3894 6.03368C30.1614 6.87051 30.0498 7.78002 30.0498 8.75985C30.0498 10.8648 30.7624 11.915 32.1852 11.915ZM31.7149 38.7712C32.0664 38.7712 32.4607 38.6188 32.8954 38.3117C32.273 35.8411 31.9643 33.3423 31.9643 30.8107C31.9643 29.1159 32.0521 27.4235 32.2279 25.7287C32.4037 24.0339 32.6056 22.3415 32.8336 20.6467C33.1234 18.4433 33.2683 17.2384 33.2683 17.0345C33.2683 16.2375 32.9571 15.5999 32.3372 15.1217C31.7149 14.6412 31.0118 14.32 30.2255 14.1583C29.4393 14.5872 28.9358 15.5413 28.7196 17.0204C28.5011 18.4995 28.3823 19.9951 28.3633 21.507C28.3419 22.5267 28.2897 23.3447 28.2089 23.9566L28.3016 25.5177C28.4251 28.7432 28.665 31.4576 29.0165 33.6611C29.57 37.0647 30.4726 38.7712 31.7149 38.7712ZM38.7908 37.3343C39.4322 35.7192 40.0117 34.0549 40.5296 32.339C41.1709 30.2551 41.9167 28.2111 42.7647 26.2092C43.6127 24.2074 44.7623 22.4095 46.2089 20.8155C46.064 21.8586 45.9927 23.3494 45.9927 25.2903C45.9927 26.4554 46.159 28.0751 46.4891 30.1473C46.8193 32.2218 47.1614 33.647 47.5129 34.4229C47.8644 35.1988 48.3704 35.5879 49.0331 35.5879C49.3015 35.5879 49.6032 35.5059 49.9333 35.3418C49.6222 34.6667 49.4678 33.8603 49.4678 32.9203V32.8219C49.4678 31.978 49.4511 30.6466 49.4203 28.8299C49.3894 26.9406 49.4773 25.4943 49.6839 24.4934C49.8906 23.4924 50.0711 22.5126 50.2279 21.5515C50.3822 20.5904 50.4606 19.7138 50.4606 18.9168C50.4606 16.9759 49.8288 15.7898 48.5675 15.3608C48.3823 15.1967 48.1756 15.1147 47.9476 15.1147C47.4915 15.1147 46.9951 15.41 46.4583 16.0031C45.9215 16.5961 45.3989 17.3064 44.8906 18.1338C44.3846 18.9613 43.912 19.7677 43.4797 20.5553C43.045 21.3429 42.6934 21.9195 42.425 22.2876C41.7006 23.5346 41.0901 24.8215 40.5937 26.1483C40.159 27.3133 39.6317 28.4572 39.0117 29.58V28.844C39.0117 26.7999 39.292 24.273 39.8502 21.2585C40.4084 18.244 40.6887 16.2586 40.6887 15.2975C40.6887 14.4794 40.4963 13.7762 40.1139 13.1831C39.7315 12.5901 39.0022 12.2033 37.9262 12.0181C37.2018 12.569 36.6745 13.5512 36.3443 14.96C36.0141 16.3688 35.8122 18.1221 35.7386 20.2154C35.665 22.3087 35.6198 23.694 35.5985 24.3691C35.5771 25.0442 35.5676 25.5857 35.5676 25.9936C35.5676 26.6476 35.5367 27.393 35.4749 28.2298C35.4132 29.2518 35.3823 30.2739 35.3823 31.2935C35.3823 32.3367 35.4607 33.3165 35.6151 34.2354C35.7695 35.1543 36.0593 35.9067 36.4844 36.488C36.9096 37.0694 37.5438 37.3624 38.3942 37.3624L38.7908 37.3343ZM67.0306 36.4294C67.1755 36.4294 67.2848 36.3896 67.3561 36.3075C67.4273 36.2255 67.4653 36.1247 67.4653 36.0005C67.4653 35.9184 67.4344 35.827 67.3727 35.7239C66.5247 33.9892 66.1019 31.2959 66.1019 27.6415C66.1019 24.784 66.2943 21.7484 66.6767 18.5347C67.0591 15.3209 67.4582 12.3346 67.8715 9.58028C68.1613 7.51983 68.3893 5.76411 68.5532 4.31546C68.6577 3.92869 68.7076 3.53957 68.7076 3.1528C68.7076 2.43785 68.4915 1.7651 68.0568 1.13219C67.6221 0.49929 66.9404 0.121892 66.0093 0C65.7622 0 65.5912 0.107828 65.4986 0.321139C65.4059 0.534451 65.3276 0.764171 65.2658 1.0103L65.1114 1.43927C64.4487 3.92869 64.0164 6.50015 63.8098 9.15366C63.6435 11.2141 63.3561 13.2042 62.9404 15.124C61.596 13.9614 60.3252 13.38 59.1257 13.38C58.0307 13.38 57.0212 13.7832 56.1019 14.5896C55.1827 15.396 54.387 16.4414 53.7148 17.7283C53.0426 19.0152 52.5271 20.4334 52.1637 21.9828C51.8027 23.5346 51.6221 25.0653 51.6221 26.5749C51.6221 28.1876 51.8644 29.6574 52.3514 30.9841C52.8383 32.3109 53.596 33.2907 54.6316 33.9236C55.0853 34.1064 55.501 34.2002 55.8715 34.2002C56.5746 34.2002 57.2041 33.94 57.7623 33.4196C58.3205 32.8992 58.8216 32.2523 59.2658 31.4764C59.71 30.7005 60.1399 29.8847 60.5532 29.0268C61.2967 27.332 62.0924 26.078 62.9404 25.2622C63.0449 25.9959 63.1162 26.7929 63.1566 27.6508C63.1779 29.4464 63.4107 31.1927 63.8549 32.8852C64.2991 34.58 65.3276 35.7637 66.9404 36.4365H67.0306V36.4294ZM55.729 31.7436C55.6269 31.2537 55.5746 30.7028 55.5746 30.091C55.5746 27.8266 56.1851 25.1567 57.4036 22.086C58.6221 19.0152 60.0473 16.8563 61.6791 15.6116C62.5675 16.5703 63.0117 17.5291 63.0117 18.4901C63.0117 18.8371 62.9451 19.1746 62.8098 19.5004C62.6744 19.8263 62.5366 20.1427 62.3917 20.4498C61.5034 22.4493 60.539 24.4254 59.4939 26.3733C58.4511 28.3212 57.1946 30.1121 55.729 31.7436ZM104.221 37.5733C104.84 37.3905 105.292 36.9967 105.572 36.3943C105.852 35.7918 106.069 35.1496 106.225 34.4651C106.38 33.7806 106.572 33.1852 106.8 32.6742C107.731 29.4909 108.529 26.8984 109.192 24.8965C110.021 22.4071 110.983 20.0091 112.08 17.7025L112.173 19.1113C112.213 20.0912 112.287 21.2749 112.392 22.6626C112.496 24.0503 112.646 25.499 112.843 27.0109C113.04 28.5205 113.313 29.941 113.665 31.2678C114.016 32.5945 114.463 33.6751 115 34.5143C115.536 35.3535 116.201 35.7707 116.988 35.7707C117.506 35.7707 118.076 35.5457 118.696 35.098C119.235 33.8744 119.71 32.5664 120.123 31.1787C120.517 29.8918 120.957 28.6471 121.444 27.4446C121.931 26.2397 122.555 25.1989 123.323 24.3222L123.353 26.7718C123.353 27.7118 123.415 28.64 123.539 29.5589C123.662 30.4778 123.969 31.2584 124.456 31.9007C124.943 32.5429 125.693 32.9461 126.707 33.1102C126.997 33.0704 127.142 32.9578 127.142 32.7727C127.142 32.6906 127.102 32.5992 127.019 32.4961C126.479 31.3732 126.211 30.0254 126.211 28.4549C126.211 27.2711 126.304 26.0662 126.491 24.8426C126.596 24.0878 126.667 23.3424 126.71 22.6087C126.895 21.8328 126.99 21.1085 126.99 20.4357C126.99 19.7419 126.824 19.1395 126.494 18.6284C126.163 18.1174 125.532 17.7611 124.601 17.5572H124.508C124.095 17.5572 123.779 17.726 123.56 18.0635C123.342 18.4011 123.152 18.7785 122.985 19.1957C122.819 19.6153 122.634 19.9552 122.427 20.2224C120.874 22.958 119.591 25.806 118.577 28.7643C118.059 30.1731 117.51 31.5608 116.931 32.9274C116.517 31.3967 116.247 29.8449 116.123 28.2744C116 26.7038 115.926 25.1309 115.905 23.5604C115.883 21.0499 115.677 18.5792 115.285 16.1508C115.078 15.4968 114.684 14.9459 114.104 14.4982C113.525 14.0481 112.935 13.8254 112.335 13.8254C111.425 13.8254 110.843 14.3669 110.596 15.4475C108.94 19.3246 107.46 23.2557 106.154 27.2359C105.451 29.3386 104.715 31.4295 103.95 33.5134C103.888 32.4937 103.857 31.4717 103.857 30.452C103.857 27.5336 104.095 24.6035 104.572 21.664C104.924 19.4184 105.515 16.2351 106.342 12.1119C106.61 11.5001 106.745 10.9281 106.745 10.3984C106.745 9.1935 105.981 8.32619 104.449 7.79643L104.199 7.76596C102.874 7.76596 101.881 9.68576 101.218 13.523C100.679 16.7063 100.411 20.5248 100.411 24.9739C100.411 26.9734 100.468 28.7596 100.582 30.3325C100.696 31.903 100.836 32.9954 101 33.6095C101.185 34.5284 101.517 35.391 101.993 36.1974C102.468 37.0037 103.206 37.4515 104.221 37.5733ZM133.938 37.1561C134.971 37.1561 135.959 36.8092 136.9 36.113C137.84 35.4168 138.61 34.3948 139.211 33.0446C139.809 31.6944 140.111 30.0277 140.111 28.0446C140.028 25.7756 139.688 23.5041 139.087 21.2351C138.57 19.2707 137.589 17.5853 136.14 16.1742C136.676 15.253 137.444 14.5685 138.434 14.1184C138.703 13.9965 138.838 13.8324 138.838 13.6285C138.838 13.5254 138.798 13.4035 138.714 13.2605C137.515 12.1564 136.408 11.6032 135.396 11.6032C134.403 11.6032 133.515 12.0369 132.729 12.9065C131.943 13.7762 131.256 14.8849 130.667 16.2351C130.078 17.5853 129.586 19.0105 129.194 20.5154C128.802 22.018 128.508 23.4338 128.311 24.7653C128.114 26.0944 128.007 27.1773 127.985 28.0165C128.047 30.0817 128.363 31.7905 128.931 33.1383C129.498 34.4885 130.235 35.4941 131.133 36.1599C132.03 36.8256 132.964 37.1561 133.938 37.1561ZM133.154 35.2316C132.905 35.2316 132.71 35.098 132.565 34.8331C132.007 33.1758 131.726 31.4764 131.726 29.7371C131.726 27.5477 132.073 25.3747 132.767 23.2158C133.46 21.0569 134.356 19.0785 135.453 17.2759C137.047 20.0372 137.845 22.9955 137.845 26.1459C137.845 27.7001 137.596 29.1956 137.099 30.6278C136.603 32.0601 135.805 33.3282 134.707 34.4346L134.584 34.526C133.962 34.9949 133.484 35.2316 133.154 35.2316ZM145.828 37.5733C146.448 37.3905 146.9 36.9967 147.18 36.3943C147.46 35.7918 147.676 35.1496 147.833 34.4651C147.988 33.7806 148.18 33.1852 148.408 32.6742C149.339 29.4909 150.137 26.8984 150.8 24.8965C151.629 22.4071 152.591 20.0091 153.688 17.7025L153.781 19.1113C153.821 20.0912 153.895 21.2749 153.999 22.6626C154.104 24.0503 154.254 25.499 154.451 27.0109C154.648 28.5228 154.921 29.941 155.273 31.2678C155.624 32.5945 156.071 33.6751 156.608 34.5143C157.144 35.3535 157.809 35.7707 158.596 35.7707C159.113 35.7707 159.684 35.5457 160.303 35.098C160.843 33.8744 161.318 32.5664 161.731 31.1787C162.125 29.8918 162.565 28.6471 163.052 27.4446C163.539 26.2397 164.163 25.1989 164.931 24.3222L164.961 26.7718C164.961 27.7118 165.023 28.64 165.147 29.5589C165.27 30.4778 165.577 31.2584 166.064 31.9007C166.55 32.5429 167.301 32.9461 168.315 33.1102C168.605 33.0704 168.75 32.9578 168.75 32.7727C168.75 32.6906 168.71 32.5992 168.626 32.4961C168.087 31.3732 167.819 30.0254 167.819 28.4549C167.819 27.2711 167.912 26.0662 168.099 24.8426C168.204 24.0878 168.275 23.3424 168.318 22.6087C168.503 21.8328 168.598 21.1085 168.598 20.4357C168.598 19.7419 168.432 19.1395 168.102 18.6284C167.771 18.1174 167.14 17.7611 166.208 17.5572H166.116C165.703 17.5572 165.387 17.726 165.168 18.0635C164.95 18.4011 164.76 18.7785 164.593 19.1957C164.427 19.6153 164.242 19.9552 164.035 20.2224C162.482 22.958 161.199 25.806 160.185 28.7643C159.667 30.1731 159.118 31.5608 158.539 32.9274C158.125 31.3967 157.855 29.8449 157.731 28.2744C157.608 26.7038 157.534 25.1309 157.513 23.5604C157.491 21.0499 157.284 18.5792 156.893 16.1508C156.686 15.4968 156.292 14.9459 155.712 14.4982C155.132 14.0481 154.543 13.8254 153.942 13.8254C153.033 13.8254 152.451 14.3669 152.204 15.4475C150.548 19.3246 149.068 23.2557 147.762 27.2359C147.059 29.3386 146.323 31.4295 145.558 33.5134C145.496 32.4937 145.465 31.4717 145.465 30.452C145.465 27.5336 145.703 24.6035 146.18 21.664C146.532 19.4184 147.123 16.2351 147.95 12.1119C148.218 11.5001 148.353 10.9281 148.353 10.3984C148.353 9.1935 147.589 8.32619 146.056 7.79643L145.807 7.76596C144.482 7.76596 143.489 9.68576 142.826 13.523C142.287 16.7063 142.018 20.5248 142.018 24.9739C142.018 26.9734 142.076 28.7596 142.19 30.3325C142.304 31.903 142.444 32.9954 142.608 33.6095C142.793 34.5284 143.125 35.391 143.6 36.1974C144.068 36.9873 144.814 37.4515 145.828 37.5733Z" fill="#6842D9"/>
<g opacity="0.2342">
<path opacity="0.2342" fill-rule="evenodd" clip-rule="evenodd" d="M83.0516 3.25373C84.2796 5.45483 82.6953 8.91235 78.3034 13.6263L78.3105 13.638L78.2939 13.6568L78.3343 13.7295C79.4008 15.6047 80.8901 17.5386 82.7998 19.5358L82.9447 19.6858C87.0041 22.9089 88.9779 24.5193 88.8711 24.5193C88.7618 24.5193 88.8521 24.5919 89.1418 24.7349L89.3604 25.0045C89.0445 25.4335 88.7309 25.8437 88.4198 26.2398L88.4126 26.2469L88.6003 26.4016L89.5243 25.2202C92.4601 26.5446 94.453 27.154 95.5029 27.0462C97.08 26.8845 97.624 29.3012 95.5029 29.3012C94.0896 29.3012 92.206 28.5488 89.8497 27.0462C89.13 27.7119 81.4649 40.384 73.4198 35.7123C67.187 31.882 67.2464 25.4311 73.5956 16.3595C74.4317 15.3562 75.1965 14.421 75.8901 13.549L75.9305 13.4997L75.921 13.481L75.9685 13.42L75.9067 13.2888C74.6573 10.6329 74.1918 7.95831 74.5077 5.26496C74.9519 0.569757 81.0255 -0.377257 83.0516 3.25373ZM76.8568 15.1312L76.9067 15.0679C70.3652 23.4082 70.0303 29.2965 75.902 32.733C79.3343 34.5731 83.453 32.4728 88.2582 26.4321L88.4079 26.2445L88.2677 26.1297C82.9613 22.5127 79.1799 18.8583 76.9186 15.1687L76.8925 15.1969L76.8568 15.1312ZM79.4483 3.05918C77.7713 2.63724 76.5172 4.22419 76.3628 5.82989C76.168 7.69578 76.4816 9.63199 77.3082 11.6456L77.3153 11.6643L77.3271 11.6502L77.3414 11.6784C79.9875 8.20913 81.2203 6.06195 81.0374 5.23917C81.0255 3.86554 80.0041 3.19982 79.4483 3.05918Z" fill="#6842D9"/>
<path opacity="0.2342" fill-rule="evenodd" clip-rule="evenodd" d="M87.0041 13.6517C87.8378 12.0061 88.9803 11.4342 90.4293 11.9358C95.9209 13.8134 90.5077 25.7143 90.3438 25.7143L89.6359 27.2685L89.3937 27.0294V27.0575C85.8663 24.3665 83.5766 21.9404 82.5196 19.7768L82.4887 19.7111C82.0184 18.6375 81.8355 17.5311 81.9447 16.3872C82.1443 13.4149 83.8283 12.5054 87.0041 13.6517ZM87.8758 16.3919C85.3889 14.5635 84.1466 15.0417 84.1466 17.8312C84.1466 19.5377 85.8545 21.9029 89.2725 24.9267V24.922L89.3319 24.9642L89.3889 24.8189C91.4103 19.7135 91.7594 16.2231 90.4317 14.3479C89.4032 13.2157 88.111 14.3361 87.8758 16.3919Z" fill="#6842D9"/>
</g>
<path fill-rule="evenodd" clip-rule="evenodd" d="M84.7386 3.25373C85.9666 5.45483 84.3846 8.91236 79.9904 13.6263L79.9975 13.638L79.9809 13.6568L80.0212 13.7295C81.0877 15.6047 82.577 17.5386 84.4868 19.5358L84.6317 19.6858C88.691 22.9089 90.6649 24.5193 90.558 24.5193C90.4511 24.5193 90.539 24.5919 90.8288 24.7349L91.0473 25.0045C90.5723 25.6468 90.1043 26.2516 89.6411 26.8188L89.6958 26.861L90.0212 27.1306L91.2088 25.2202C94.1447 26.5446 96.1376 27.154 97.1874 27.0462C98.7646 26.8845 98.7504 29.9787 96.6293 29.9787C95.216 29.9787 93.3323 29.2262 90.9761 27.7236C90.2563 28.3894 83.1495 40.3841 75.1044 35.7123C68.8716 31.8821 68.931 25.4311 75.2801 16.3595C76.1162 15.3562 76.8811 14.421 77.5747 13.549L77.6056 13.5115L77.5509 13.3943C76.3277 10.6681 75.874 7.95832 76.1899 5.26496C76.6388 0.569757 82.7148 -0.377257 84.7386 3.25373ZM78.5058 15.2508L78.463 15.2976L78.4464 15.2625L78.4037 15.3164C72.0521 23.5254 71.7813 29.3293 77.5937 32.733C80.9167 34.5121 84.8811 32.604 89.4868 27.004L89.6411 26.8165L89.4036 26.6383C84.3443 22.8386 80.7291 19.0693 78.5533 15.3281L78.5058 15.2508ZM81.1376 3.05918C79.4607 2.63724 78.2065 4.22419 78.0521 5.82989C77.8573 7.69578 78.1709 9.63199 78.9975 11.6456L79.0046 11.6643L79.0165 11.6503L79.0307 11.6784C81.6768 8.20913 82.9096 6.06195 82.7267 5.23917C82.7148 3.86554 81.6934 3.19982 81.1376 3.05918Z" fill="#6842D9"/>
<path fill-rule="evenodd" clip-rule="evenodd" d="M88.6385 13.5462C89.4722 11.9007 90.6147 11.3287 92.0637 11.8303C97.5553 13.7079 92.142 25.6089 91.9782 25.6089L91.2703 27.163L91.028 26.9239V26.952C90.7549 26.7434 89.9497 27.3552 89.6765 27.1724L89.6646 27.1653C89.5791 27.0974 89.6147 26.8465 89.6575 26.584L89.6646 26.5371L89.6717 26.4902C89.7169 26.2183 89.7596 25.9558 89.6741 25.8878C87.8071 24.3571 85.9568 22.2639 84.1183 19.608C83.648 18.5344 83.4651 17.428 83.5744 16.2841C83.7787 13.3118 85.4651 12.3999 88.6385 13.5462ZM89.5102 16.2864C87.0233 14.4581 85.781 14.9363 85.781 17.7257C85.781 19.4322 87.4889 21.7974 90.9069 24.8213V24.8166L90.9663 24.8588L91.0233 24.7134C93.0447 19.608 93.3938 16.1177 92.066 14.2424C91.0399 13.1125 89.7478 14.2307 89.5102 16.2864Z" fill="#6842D9"/>
<path d="M21.0973 50.1551C21.525 50.3783 21.8597 50.6897 22.1015 51.0895C22.3432 51.4801 22.4641 51.9264 22.4641 52.4284C22.4641 53.228 22.1805 53.8928 21.6133 54.4228C21.0462 54.9528 20.3535 55.2178 19.5353 55.2178H15.3513V45.4551H19.2285C20.0281 45.4551 20.7022 45.7154 21.2507 46.2361C21.8086 46.7568 22.0875 47.3983 22.0875 48.1607C22.0875 48.9975 21.7575 49.6623 21.0973 50.1551ZM19.2285 46.9613H16.9551V49.5275H19.2285C19.5818 49.5275 19.8793 49.4066 20.121 49.1649C20.3628 48.9139 20.4837 48.607 20.4837 48.2444C20.4837 47.8818 20.3628 47.5796 20.121 47.3379C19.8793 47.0868 19.5818 46.9613 19.2285 46.9613ZM16.9551 53.7115H19.5353C19.9072 53.7115 20.2187 53.5814 20.4697 53.321C20.7301 53.0514 20.8602 52.726 20.8602 52.3448C20.8602 51.9635 20.7301 51.6428 20.4697 51.3824C20.2187 51.1128 19.9072 50.978 19.5353 50.978H16.9551V53.7115ZM37.1828 55.2178H35.4534L34.77 53.2513H30.6139L29.9305 55.2178H28.1871L31.7296 45.4551H33.6543L37.1828 55.2178ZM32.6919 47.3379L31.1438 51.745H34.24L32.6919 47.3379ZM49.2086 50.1551C49.6363 50.3783 49.9711 50.6897 50.2128 51.0895C50.4546 51.4801 50.5754 51.9264 50.5754 52.4284C50.5754 53.228 50.2918 53.8928 49.7247 54.4228C49.1575 54.9528 48.4648 55.2178 47.6466 55.2178H43.4626V45.4551H47.3398C48.1394 45.4551 48.8135 45.7154 49.3621 46.2361C49.9199 46.7568 50.1989 47.3983 50.1989 48.1607C50.1989 48.9975 49.8688 49.6623 49.2086 50.1551ZM47.3398 46.9613H45.0665V49.5275H47.3398C47.6931 49.5275 47.9906 49.4066 48.2324 49.1649C48.4741 48.9139 48.595 48.607 48.595 48.2444C48.595 47.8818 48.4741 47.5796 48.2324 47.3379C47.9906 47.0868 47.6931 46.9613 47.3398 46.9613ZM45.0665 53.7115H47.6466C48.0185 53.7115 48.33 53.5814 48.581 53.321C48.8414 53.0514 48.9716 52.726 48.9716 52.3448C48.9716 51.9635 48.8414 51.6428 48.581 51.3824C48.33 51.1128 48.0185 50.978 47.6466 50.978H45.0665V53.7115ZM62.4455 45.4551H64.2725L60.8695 51.3406V55.2178H59.2656V51.3406L55.8626 45.4551H57.6897L60.0745 49.7786L62.4455 45.4551ZM85.0152 50.1551C85.4429 50.3783 85.7776 50.6897 86.0193 51.0895C86.2611 51.4801 86.382 51.9264 86.382 52.4284C86.382 53.228 86.0984 53.8928 85.5312 54.4228C84.964 54.9528 84.2714 55.2178 83.4532 55.2178H79.2691V45.4551H83.1463C83.9459 45.4551 84.62 45.7154 85.1686 46.2361C85.7265 46.7568 86.0054 47.3983 86.0054 48.1607C86.0054 48.9975 85.6753 49.6623 85.0152 50.1551ZM83.1463 46.9613H80.873V49.5275H83.1463C83.4996 49.5275 83.7972 49.4066 84.0389 49.1649C84.2807 48.9139 84.4015 48.607 84.4015 48.2444C84.4015 47.8818 84.2807 47.5796 84.0389 47.3379C83.7972 47.0868 83.4996 46.9613 83.1463 46.9613ZM80.873 53.7115H83.4532C83.8251 53.7115 84.1365 53.5814 84.3876 53.321C84.6479 53.0514 84.7781 52.726 84.7781 52.3448C84.7781 51.9635 84.6479 51.6428 84.3876 51.3824C84.1365 51.1128 83.8251 50.978 83.4532 50.978H80.873V53.7115ZM100.334 55.2178H98.5763L96.5122 51.6614H94.6154V55.2178H93.0115V45.4551H96.9166C97.7906 45.4551 98.5298 45.7619 99.1342 46.3756C99.7478 46.9706 100.055 47.7098 100.055 48.5931C100.055 49.216 99.8733 49.7879 99.5107 50.3085C99.1574 50.8199 98.6925 51.1918 98.116 51.4243L100.334 55.2178ZM96.9166 46.9613H94.6154V50.2249H96.9166C97.3443 50.2249 97.7069 50.0668 98.0045 49.7507C98.302 49.4345 98.4508 49.0487 98.4508 48.5931C98.4508 48.1375 98.302 47.7516 98.0045 47.4355C97.7069 47.1194 97.3443 46.9613 96.9166 46.9613ZM106.795 55.2178V45.4551H108.399V55.2178H106.795ZM115.58 45.4551H119.415C120.754 45.4551 121.865 45.9246 122.748 46.8637C123.641 47.8028 124.087 48.9604 124.087 50.3364C124.087 51.7032 123.641 52.8608 122.748 53.8092C121.865 54.7482 120.754 55.2178 119.415 55.2178H115.58V45.4551ZM117.183 53.6836H119.415C120.335 53.6836 121.084 53.3675 121.66 52.7353C122.246 52.103 122.539 51.3034 122.539 50.3364C122.539 49.3695 122.246 48.5698 121.66 47.9376C121.084 47.3053 120.335 46.9892 119.415 46.9892H117.183V53.6836ZM135.396 50.1691H140.277V50.8385C140.277 52.1774 139.835 53.2745 138.952 54.1299C138.078 54.976 136.925 55.3991 135.493 55.3991C133.987 55.3991 132.741 54.9109 131.756 53.9347C130.779 52.9584 130.291 51.759 130.291 50.3364C130.291 48.9232 130.779 47.7284 131.756 46.7521C132.741 45.7666 133.959 45.2738 135.41 45.2738C136.312 45.2738 137.139 45.483 137.892 45.9014C138.655 46.3105 139.245 46.873 139.663 47.5889L138.283 48.3839C138.022 47.9097 137.636 47.5331 137.125 47.2542C136.614 46.9753 136.042 46.8358 135.41 46.8358C134.387 46.8358 133.545 47.1705 132.885 47.84C132.225 48.5187 131.895 49.3555 131.895 50.3504C131.895 51.3545 132.225 52.1867 132.885 52.8468C133.564 53.507 134.438 53.837 135.507 53.837C136.363 53.837 137.065 53.6371 137.613 53.2373C138.162 52.8375 138.51 52.2936 138.659 51.6056H135.396V50.1691ZM148.577 51.0477V53.6836H152.901V55.2178H146.973V45.4551H152.831V46.9892H148.577V49.5275H152.482V51.0477H148.577Z" fill="#676767"/>
</svg>
